<?xml version="1.0" encoding="UTF-8" standalone="no"?> <!DOCTYPE svg PUBLIC "-//W3C//DTD SVG 1.1//EN" "http://www.w3.org/Graphics/SVG/1.1/DTD/svg11.dtd"> <!-- Generated by graphviz version 2.40.1 (20161225.0304) --> <!-- Title: G Pages: 1 --> <svg width="783pt" height="260pt" viewBox="0.00 0.00 783.09 260.00" xmlns="http://www.w3.org/2000/svg" xmlns:xlink="http://www.w3.org/1999/xlink"> <g id="graph0" class="graph" transform="scale(1 1) rotate(0) translate(4 256)"> <title>G</title> <polygon fill="#ffffff" stroke="transparent" points="-4,4 -4,-256 779.0919,-256 779.0919,4 -4,4"/> <!-- riff --> <g id="node1" class="node"> <title>riff</title> <polygon fill="#ffffff" stroke="#333333" points="467.5698,-252 413.5698,-252 413.5698,-216 467.5698,-216 467.5698,-252"/> <text text-anchor="middle" x="440.5698" y="-229.8" font-family="sans-serif" font-size="14.00" fill="#000000">riff</text> </g> <!-- riff&#45;builder --> <g id="node2" class="node"> <title>riff&#45;builder</title> <polygon fill="#ffffdd" stroke="#333333" points="479.7594,-180 401.3802,-180 401.3802,-144 479.7594,-144 479.7594,-180"/> <text text-anchor="middle" x="440.5698" y="-157.8" font-family="sans-serif" font-size="14.00" fill="#000000">riff&#45;builder</text> </g> <!-- riff&#45;&gt;riff&#45;builder --> <g id="edge1" class="edge"> <title>riff&#45;&gt;riff&#45;builder</title> <path fill="none" stroke="#000000" d="M440.5698,-215.8314C440.5698,-205 440.5698,-191.2876 440.5698,-180.4133"/> </g> <!-- riff&#45;buildpack --> <g id="node3" class="node"> <title>riff&#45;buildpack</title> <polygon fill="#ffdddd" stroke="#333333" points="198.3136,-108 104.826,-108 104.826,-72 198.3136,-72 198.3136,-108"/> <text text-anchor="middle" x="151.5698" y="-85.8" font-family="sans-serif" font-size="14.00" fill="#000000">riff&#45;buildpack</text> </g> <!-- riff&#45;builder&#45;&gt;riff&#45;buildpack --> <g id="edge2" class="edge"> <title>riff&#45;builder&#45;&gt;riff&#45;buildpack</title> <path fill="none" stroke="#000000" d="M401.1541,-153.9126C354.6171,-144.1229 275.0139,-126.6199 207.5698,-108 204.6166,-107.1847 201.5866,-106.3133 198.5382,-105.4101"/> </g> <!-- OpenJDK buildpack --> <g id="node4" class="node"> <title>OpenJDK buildpack</title> <polygon fill="#ffdddd" stroke="#333333" points="346.7596,-108 216.38,-108 216.38,-72 346.7596,-72 346.7596,-108"/> <text text-anchor="middle" x="281.5698" y="-85.8" font-family="sans-serif" font-size="14.00" fill="#000000">OpenJDK buildpack</text> </g> <!-- riff&#45;builder&#45;&gt;OpenJDK buildpack --> <g id="edge3" class="edge"> <title>riff&#45;builder&#45;&gt;OpenJDK buildpack</title> <path fill="none" stroke="#000000" d="M401.2664,-144.2022C376.9885,-133.2085 345.9235,-119.1413 321.5254,-108.0931"/> </g> <!-- Build System buildpack --> <g id="node5" class="node"> <title>Build System buildpack</title> <polygon fill="#ffdddd" stroke="#333333" points="515.6217,-108 365.5179,-108 365.5179,-72 515.6217,-72 515.6217,-108"/> <text text-anchor="middle" x="440.5698" y="-85.8" font-family="sans-serif" font-size="14.00" fill="#000000">Build System buildpack</text> </g> <!-- riff&#45;builder&#45;&gt;Build System buildpack --> <g id="edge4" class="edge"> <title>riff&#45;builder&#45;&gt;Build System buildpack</title> <path fill="none" stroke="#000000" d="M440.5698,-143.8314C440.5698,-133 440.5698,-119.2876 440.5698,-108.4133"/> </g> <!-- NodeJS buildpack --> <g id="node6" class="node"> <title>NodeJS buildpack</title> <polygon fill="#ffdddd" stroke="#333333" points="651.8289,-108 533.3107,-108 533.3107,-72 651.8289,-72 651.8289,-108"/> <text text-anchor="middle" x="592.5698" y="-85.8" font-family="sans-serif" font-size="14.00" fill="#000000">NodeJS buildpack</text> </g> <!-- riff&#45;builder&#45;&gt;NodeJS buildpack --> <g id="edge5" class="edge"> <title>riff&#45;builder&#45;&gt;NodeJS buildpack</title> <path fill="none" stroke="#000000" d="M478.9258,-143.8314C502.0558,-132.875 531.4093,-118.9708 554.4896,-108.038"/> </g> <!-- NPM buildpack --> <g id="node7" class="node"> <title>NPM buildpack</title> <polygon fill="#ffdddd" stroke="#333333" points="775.114,-108 670.0256,-108 670.0256,-72 775.114,-72 775.114,-108"/> <text text-anchor="middle" x="722.5698" y="-85.8" font-family="sans-serif" font-size="14.00" fill="#000000">NPM buildpack</text> </g> <!-- riff&#45;builder&#45;&gt;NPM buildpack --> <g id="edge6" class="edge"> <title>riff&#45;builder&#45;&gt;NPM buildpack</title> <path fill="none" stroke="#000000" d="M480.0405,-152.8376C524.1692,-142.4718 597.6965,-124.8351 660.5698,-108 663.6013,-107.1883 666.7114,-106.3388 669.8466,-105.4695"/> </g> <!-- Java invoker --> <g id="node8" class="node"> <title>Java invoker</title> <polygon fill="#ddffff" stroke="#333333" points="87.2095,-36 -.0699,-36 -.0699,0 87.2095,0 87.2095,-36"/> <text text-anchor="middle" x="43.5698" y="-13.8" font-family="sans-serif" font-size="14.00" fill="#000000">Java invoker</text> </g> <!-- riff&#45;buildpack&#45;&gt;Java invoker --> <g id="edge7" class="edge"> <title>riff&#45;buildpack&#45;&gt;Java invoker</title> <path fill="none" stroke="#000000" d="M124.3168,-71.8314C107.9449,-60.9167 87.1845,-47.0764 70.814,-36.1628"/> </g> <!-- Node invoker --> <g id="node9" class="node"> <title>Node invoker</title> <polygon fill="#ddffff" stroke="#333333" points="197.6577,-36 105.4819,-36 105.4819,0 197.6577,0 197.6577,-36"/> <text text-anchor="middle" x="151.5698" y="-13.8" font-family="sans-serif" font-size="14.00" fill="#000000">Node invoker</text> </g> <!-- riff&#45;buildpack&#45;&gt;Node invoker --> <g id="edge8" class="edge"> <title>riff&#45;buildpack&#45;&gt;Node invoker</title> <path fill="none" stroke="#000000" d="M151.5698,-71.8314C151.5698,-61 151.5698,-47.2876 151.5698,-36.4133"/> </g> <!-- Command invoker --> <g id="node10" class="node"> <title>Command invoker</title> <polygon fill="#ddffff" stroke="#333333" points="336.6687,-36 216.4709,-36 216.4709,0 336.6687,0 336.6687,-36"/> <text text-anchor="middle" x="276.5698" y="-13.8" font-family="sans-serif" font-size="14.00" fill="#000000">Command invoker</text> </g> <!-- riff&#45;buildpack&#45;&gt;Command invoker --> <g id="edge9" class="edge"> <title>riff&#45;buildpack&#45;&gt;Command invoker</title> <path fill="none" stroke="#000000" d="M183.1126,-71.8314C202.0616,-60.9167 226.0899,-47.0764 245.0371,-36.1628"/> </g> </g> </svg>