<?xml version="1.0" encoding="UTF-8" standalone="no"?> <!DOCTYPE svg PUBLIC "-//W3C//DTD SVG 1.1//EN" "http://www.w3.org/Graphics/SVG/1.1/DTD/svg11.dtd"> <!-- Generated by graphviz version 2.40.1 (20161225.0304) --> <!-- Title: G Pages: 1 --> <svg width="594pt" height="361pt" viewBox="0.00 0.00 594.00 360.80" xmlns="http://www.w3.org/2000/svg" xmlns:xlink="http://www.w3.org/1999/xlink"> <g id="graph0" class="graph" transform="scale(1 1) rotate(0) translate(4 356.8)"> <title>G</title> <polygon fill="#ffffff" stroke="transparent" points="-4,4 -4,-356.8 590,-356.8 590,4 -4,4"/> <g id="clust1" class="cluster"> <title>cluster_builder</title> <polygon fill="none" stroke="#000000" points="8,-8 8,-288.8 578,-288.8 578,-8 8,-8"/> </g> <g id="clust2" class="cluster"> <title>cluster_java</title> <polygon fill="none" stroke="#000000" points="16,-16 16,-236.8 182,-236.8 182,-16 16,-16"/> <text text-anchor="middle" x="99" y="-220.2" font-family="sans-serif" font-size="14.00" fill="#000000">Java group</text> </g> <g id="clust3" class="cluster"> <title>cluster_node</title> <polygon fill="none" stroke="#000000" points="190,-16 190,-236.8 362,-236.8 362,-16 190,-16"/> <text text-anchor="middle" x="276" y="-220.2" font-family="sans-serif" font-size="14.00" fill="#000000">Node group</text> </g> <g id="clust4" class="cluster"> <title>cluster_command</title> <polygon fill="none" stroke="#000000" points="370,-160 370,-236.8 570,-236.8 570,-160 370,-160"/> <text text-anchor="middle" x="470" y="-220.2" font-family="sans-serif" font-size="14.00" fill="#000000">Command group</text> </g> <!-- riff --> <g id="node1" class="node"> <title>riff</title> <g id="a_node1"><a xlink:href="https://github.com/projectriff/riff" xlink:title="riff"> <polygon fill="#ffffff" stroke="#333333" points="303,-352.8 249,-352.8 249,-316.8 303,-316.8 303,-352.8"/> <text text-anchor="middle" x="276" y="-330.6" font-family="sans-serif" font-size="14.00" fill="#000000">riff</text> </a> </g> </g> <!-- riff Builder --> <g id="node2" class="node"> <title>riff Builder</title> <g id="a_node2"><a xlink:href="https://github.com/projectriff/builder" xlink:title="riff Builder"> <polygon fill="#ffffdd" stroke="#333333" points="315.8662,-280.8 236.1338,-280.8 236.1338,-244.8 315.8662,-244.8 315.8662,-280.8"/> <text text-anchor="middle" x="276" y="-258.6" font-family="sans-serif" font-size="14.00" fill="#000000">riff Builder</text> </a> </g> </g> <!-- riff&#45;&gt;riff Builder --> <g id="edge1" class="edge"> <title>riff&#45;&gt;riff Builder</title> <path fill="none" stroke="#000000" d="M276,-316.6314C276,-305.8 276,-292.0876 276,-281.2133"/> </g> <!-- OpenJDK buildpack --> <g id="node3" class="node"> <title>OpenJDK buildpack</title> <g id="a_node3"><a xlink:href="https://github.com/cloudfoundry/openjdk-buildpack" xlink:title="OpenJDK buildpack"> <polygon fill="#ffdddd" stroke="#333333" points="169.1898,-204 38.8102,-204 38.8102,-168 169.1898,-168 169.1898,-204"/> <text text-anchor="middle" x="104" y="-181.8" font-family="sans-serif" font-size="14.00" fill="#000000">OpenJDK buildpack</text> </a> </g> </g> <!-- riff Builder&#45;&gt;OpenJDK buildpack --> <!-- NodeJS buildpack --> <g id="node6" class="node"> <title>NodeJS buildpack</title> <g id="a_node6"><a xlink:href="https://github.com/cloudfoundry/nodejs-cnb" xlink:title="NodeJS buildpack"> <polygon fill="#ffdddd" stroke="#333333" points="335.2591,-204 216.7409,-204 216.7409,-168 335.2591,-168 335.2591,-204"/> <text text-anchor="middle" x="276" y="-181.8" font-family="sans-serif" font-size="14.00" fill="#000000">NodeJS buildpack</text> </a> </g> </g> <!-- riff Builder&#45;&gt;NodeJS buildpack --> <!-- Command function buildpack --> <g id="node9" class="node"> <title>Command function buildpack</title> <g id="a_node9"><a xlink:href="https://github.com/projectriff/command-function-buildpack" xlink:title="Command function buildpack"> <polygon fill="#ddffff" stroke="#333333" points="561.6993,-204 378.3007,-204 378.3007,-168 561.6993,-168 561.6993,-204"/> <text text-anchor="middle" x="470" y="-181.8" font-family="sans-serif" font-size="14.00" fill="#000000">Command function buildpack</text> </a> </g> </g> <!-- riff Builder&#45;&gt;Command function buildpack --> <!-- Build System buildpack --> <g id="node4" class="node"> <title>Build System buildpack</title> <g id="a_node4"><a xlink:href="https://github.com/cloudfoundry/build-system-buildpack" xlink:title="Build System buildpack"> <polygon fill="#ffdddd" stroke="#333333" points="174.0519,-132 23.9481,-132 23.9481,-96 174.0519,-96 174.0519,-132"/> <text text-anchor="middle" x="99" y="-109.8" font-family="sans-serif" font-size="14.00" fill="#000000">Build System buildpack</text> </a> </g> </g> <!-- OpenJDK buildpack&#45;&gt;Build System buildpack --> <g id="edge5" class="edge"> <title>OpenJDK buildpack&#45;&gt;Build System buildpack</title> <path fill="none" stroke="#000000" d="M102.7383,-167.8314C101.9861,-157 101.0339,-143.2876 100.2787,-132.4133"/> </g> <!-- Java function buildpack --> <g id="node5" class="node"> <title>Java function buildpack</title> <g id="a_node5"><a xlink:href="https://github.com/projectriff/java-function-buildpack" xlink:title="Java function buildpack"> <polygon fill="#ddffff" stroke="#333333" points="173.7408,-60 24.2592,-60 24.2592,-24 173.7408,-24 173.7408,-60"/> <text text-anchor="middle" x="99" y="-37.8" font-family="sans-serif" font-size="14.00" fill="#000000">Java function buildpack</text> </a> </g> </g> <!-- Build System buildpack&#45;&gt;Java function buildpack --> <g id="edge6" class="edge"> <title>Build System buildpack&#45;&gt;Java function buildpack</title> <path fill="none" stroke="#000000" d="M99,-95.8314C99,-85 99,-71.2876 99,-60.4133"/> </g> <!-- NPM buildpack --> <g id="node7" class="node"> <title>NPM buildpack</title> <g id="a_node7"><a xlink:href="https://github.com/cloudfoundry/npm-cnb" xlink:title="NPM buildpack"> <polygon fill="#ffdddd" stroke="#333333" points="328.5442,-132 223.4558,-132 223.4558,-96 328.5442,-96 328.5442,-132"/> <text text-anchor="middle" x="276" y="-109.8" font-family="sans-serif" font-size="14.00" fill="#000000">NPM buildpack</text> </a> </g> </g> <!-- NodeJS buildpack&#45;&gt;NPM buildpack --> <g id="edge7" class="edge"> <title>NodeJS buildpack&#45;&gt;NPM buildpack</title> <path fill="none" stroke="#000000" d="M276,-167.8314C276,-157 276,-143.2876 276,-132.4133"/> </g> <!-- Node function buildpack --> <g id="node8" class="node"> <title>Node function buildpack</title> <g id="a_node8"><a xlink:href="https://github.com/projectriff/node-function-buildpack" xlink:title="Node function buildpack"> <polygon fill="#ddffff" stroke="#333333" points="353.6881,-60 198.3119,-60 198.3119,-24 353.6881,-24 353.6881,-60"/> <text text-anchor="middle" x="276" y="-37.8" font-family="sans-serif" font-size="14.00" fill="#000000">Node function buildpack</text> </a> </g> </g> <!-- NPM buildpack&#45;&gt;Node function buildpack --> <g id="edge8" class="edge"> <title>NPM buildpack&#45;&gt;Node function buildpack</title> <path fill="none" stroke="#000000" d="M276,-95.8314C276,-85 276,-71.2876 276,-60.4133"/> </g> </g> </svg>